<svg width="25" height="25" xmlns="http://www.w3.org/2000/svg" enable-background="new 0 0 30 30">

 <g>
  <title>Layer 1</title>
  <path id="svg_1" d="m2.135,11.94c0,-1.15 0.36,-2.17 1.08,-3.07s1.63,-1.47 2.73,-1.73c0.31,-1.36 1.02,-2.48 2.11,-3.36s2.34,-1.31 3.75,-1.31c1.38,0 2.6,0.43 3.68,1.28s1.78,1.95 2.1,3.29l0.32,0c0.89,0 1.72,0.22 2.48,0.65s1.37,1.03 1.81,1.78s0.67,1.58 0.67,2.47c0,0.88 -0.21,1.69 -0.63,2.44s-1,1.35 -1.73,1.8s-1.53,0.69 -2.4,0.71c-0.13,0 -0.2,-0.06 -0.2,-0.17l0,-1.33c0,-0.12 0.07,-0.18 0.2,-0.18c0.85,-0.04 1.58,-0.38 2.18,-1.02s0.9,-1.39 0.9,-2.26s-0.33,-1.62 -0.98,-2.26s-1.42,-0.96 -2.31,-0.96l-1.61,0c-0.12,0 -0.18,-0.06 -0.18,-0.17l-0.08,-0.58c-0.11,-1.08 -0.58,-1.99 -1.39,-2.71c-0.82,-0.73 -1.76,-1.09 -2.85,-1.09s-2.05,0.36 -2.85,1.09c-0.81,0.73 -1.26,1.63 -1.36,2.71l-0.07,0.53c0,0.12 -0.07,0.19 -0.2,0.19l-0.53,0.03c-0.83,0.1 -1.53,0.46 -2.1,1.07s-0.85,1.33 -0.85,2.16c0,0.87 0.3,1.62 0.9,2.26s1.33,0.98 2.18,1.02c0.11,0 0.17,0.06 0.17,0.18l0,1.33c0,0.11 -0.06,0.17 -0.17,0.17c-1.34,-0.06 -2.47,-0.57 -3.4,-1.53s-1.37,-2.1 -1.37,-3.43zm5.35,6.69c0,-0.04 0.01,-0.11 0.04,-0.2l1.63,-5.77c0.06,-0.19 0.17,-0.34 0.32,-0.44s0.31,-0.15 0.46,-0.15c0.07,0 0.15,0.01 0.24,0.03c0.24,0.04 0.42,0.17 0.54,0.37s0.15,0.42 0.08,0.67l-1.63,5.73c-0.12,0.43 -0.4,0.64 -0.82,0.64c-0.04,0 -0.07,-0.01 -0.11,-0.02c-0.06,-0.02 -0.09,-0.03 -0.1,-0.03c-0.22,-0.06 -0.38,-0.17 -0.49,-0.33c-0.11,-0.17 -0.16,-0.33 -0.16,-0.5zm2.62,2.81l2.44,-8.77c0.04,-0.19 0.14,-0.34 0.3,-0.44s0.32,-0.15 0.49,-0.15c0.09,0 0.18,0.01 0.27,0.03c0.22,0.06 0.38,0.19 0.49,0.39s0.13,0.41 0.07,0.64l-2.43,8.78c-0.04,0.17 -0.13,0.31 -0.29,0.43s-0.32,0.18 -0.51,0.18c-0.09,0 -0.18,-0.02 -0.25,-0.05c-0.2,-0.05 -0.37,-0.18 -0.52,-0.39c-0.11,-0.18 -0.13,-0.39 -0.06,-0.65zm4.13,-2.79c0,-0.04 0.01,-0.11 0.04,-0.23l1.63,-5.77c0.06,-0.19 0.16,-0.34 0.3,-0.44c0.15,-0.1 0.3,-0.15 0.46,-0.15c0.08,0 0.17,0.01 0.26,0.03c0.21,0.06 0.36,0.16 0.46,0.31s0.15,0.31 0.15,0.47c0,0.03 -0.01,0.08 -0.02,0.14s-0.02,0.1 -0.02,0.12l-1.63,5.73c-0.04,0.19 -0.13,0.35 -0.28,0.46s-0.32,0.17 -0.51,0.17l-0.24,-0.05c-0.2,-0.06 -0.35,-0.16 -0.46,-0.32c-0.09,-0.15 -0.14,-0.31 -0.14,-0.47z"/>
 </g>
</svg>